<svg width="512" height="512" viewBox="0 0 512 512" fill="none" xmlns="http://www.w3.org/2000/svg">
  <g transform="translate(96.1836 88) scale(0.670659)">
    <circle cx="119" cy="382" r="79" fill="#000000" />
    <circle cx="357" cy="382" r="79" fill="#000000" />
    <path
      fill-rule="evenodd"
      clip-rule="evenodd"
      d="M380.377 25C432.896 25 475.472 67.5752 475.472 120.094V405.377C475.472 457.896 432.896 500.472 380.377 500.472H95.0943C42.5752 500.472 0 457.896 0 405.377V120.094C0 67.5752 42.5752 25 95.0943 25H380.377ZM118.868 286.509C66.3488 286.509 23.7736 329.085 23.7736 381.604C23.7736 434.123 66.3488 476.698 118.868 476.698C171.387 476.698 213.962 434.123 213.962 381.604C213.962 329.085 171.387 286.509 118.868 286.509ZM356.604 286.509C304.085 286.509 261.509 329.085 261.509 381.604C261.509 434.123 304.085 476.698 356.604 476.698C409.123 476.698 451.698 434.123 451.698 381.604C451.698 329.085 409.123 286.509 356.604 286.509ZM118.868 48.7736C66.3488 48.7736 23.7736 91.3488 23.7736 143.868C23.7736 196.387 66.3488 238.962 118.868 238.962C171.387 238.962 213.962 196.387 213.962 143.868C213.962 91.3488 171.387 48.7736 118.868 48.7736ZM356.604 48.7736C304.085 48.7736 261.509 91.3488 261.509 143.868C261.509 196.387 304.085 238.962 356.604 238.962C409.123 238.962 451.698 196.387 451.698 143.868C451.698 91.3488 409.123 48.7736 356.604 48.7736Z"
      fill="#000000"
    />
    <path
      fill-rule="evenodd"
      clip-rule="evenodd"
      d="M380.377 25C432.896 25 475.472 67.5752 475.472 120.094V405.377C475.472 457.896 432.896 500.472 380.377 500.472H95.0943C42.5752 500.472 0 457.896 0 405.377V120.094C0 67.5752 42.5752 25 95.0943 25H380.377ZM118.868 286.509C66.3488 286.509 23.7736 329.085 23.7736 381.604C23.7736 434.123 66.3488 476.698 118.868 476.698C171.387 476.698 213.962 434.123 213.962 381.604C213.962 329.085 171.387 286.509 118.868 286.509ZM356.604 286.509C304.085 286.509 261.509 329.085 261.509 381.604C261.509 434.123 304.085 476.698 356.604 476.698C409.123 476.698 451.698 434.123 451.698 381.604C451.698 329.085 409.123 286.509 356.604 286.509ZM118.868 48.7736C66.3488 48.7736 23.7736 91.3488 23.7736 143.868C23.7736 196.387 66.3488 238.962 118.868 238.962C171.387 238.962 213.962 196.387 213.962 143.868C213.962 91.3488 171.387 48.7736 118.868 48.7736ZM356.604 48.7736C304.085 48.7736 261.509 91.3488 261.509 143.868C261.509 196.387 304.085 238.962 356.604 238.962C409.123 238.962 451.698 196.387 451.698 143.868C451.698 91.3488 409.123 48.7736 356.604 48.7736Z"
      fill="#000000"
    />
    <path
      d="M120.786 56.7734C153.397 56.7735 181.82 74.697 196.745 101.229C187.143 134.037 156.83 158 120.918 158C84.8938 158 54.5021 133.888 45 100.922C59.9718 74.5584 88.3017 56.7734 120.786 56.7734Z"
      fill="#000000"
    />
    <path
      d="M196.988 86.9717L197.667 87.8916C197.404 87.5316 197.139 87.1735 196.872 86.8174C196.911 86.8689 196.95 86.9201 196.988 86.9717Z"
      fill="#000000"
    />
    <path
      d="M103.77 50.292C103.83 50.281 103.891 50.2697 103.952 50.2588L105.126 50.0566C104.673 50.1317 104.221 50.2105 103.77 50.292Z"
      fill="#000000"
    />
    <path
      d="M120.918 0C139.411 0 156.419 6.35555 169.88 17H97.0127C86.471 17 76.2988 18.5825 66.7207 21.5225C80.8666 8.17904 99.9371 0 120.918 0Z"
      fill="#000000"
    />
  </g>
</svg>
