<svg width="512" height="512" viewBox="0 0 512 512" fill="none" xmlns="http://www.w3.org/2000/svg">
  <rect width="512" height="512" rx="104" fill="#181818" />
  <g transform="translate(62.603774 51) scale(3.867924528)">
    <circle cx="25" cy="20" r="20" fill="#C65656" />
    <circle cx="75" cy="81" r="20" fill="#C65656" />
    <path
      fill-rule="evenodd"
      clip-rule="evenodd"
      d="M80 6C91.0457 6 100 14.9543 100 26V86C100 97.0457 91.0457 106 80 106H20C8.95431 106 1.61075e-07 97.0457 0 86V26C0 14.9543 8.95431 6 20 6H80ZM25 61C13.9543 61 5 69.9543 5 81C5 92.0457 13.9543 101 25 101C36.0457 101 45 92.0457 45 81C45 69.9543 36.0457 61 25 61ZM75 61C63.9543 61 55 69.9543 55 81C55 92.0457 63.9543 101 75 101C86.0457 101 95 92.0457 95 81C95 69.9543 86.0457 61 75 61ZM25 11C13.9543 11 5 19.9543 5 31C5 42.0457 13.9543 51 25 51C36.0457 51 45 42.0457 45 31C45 19.9543 36.0457 11 25 11ZM75 11C63.9543 11 55 19.9543 55 31C55 42.0457 63.9543 51 75 51C86.0457 51 95 42.0457 95 31C95 19.9543 86.0457 11 75 11Z"
      fill="#5067B3"
    />
    <circle cx="25" cy="81" r="20" fill="#F0E08B" />
  </g>
</svg>
