<svg width="410" height="141" viewBox="0 0 410 141" fill="none" xmlns="http://www.w3.org/2000/svg">
<path d="M405 28.58L309 5L37 5L5 12.86V112.42L101 136H373L405 128.14L405 28.58Z" stroke="url(#paint0_linear_293_20)" stroke-width="10"/>
<path d="M18.64 90C20.8587 83.6427 22.928 77.8827 24.848 72.72C26.8107 67.5573 28.7093 62.7787 30.544 58.384C32.4213 53.9893 34.3413 49.744 36.304 45.648H45.84C47.2907 48.72 48.72 51.8773 50.128 55.12C51.536 58.3627 52.944 61.776 54.352 65.36C55.76 68.9013 57.2107 72.6987 58.704 76.752C60.24 80.8053 61.84 85.2213 63.504 90H52.816C52.3467 88.464 51.8133 86.8853 51.216 85.264C50.6613 83.6427 50.1067 82.0213 49.552 80.4H32.272C31.7173 82.0213 31.1413 83.6427 30.544 85.264C29.9893 86.8853 29.4773 88.464 29.008 90H18.64ZM34.576 72.464H47.184C46.5013 70.544 45.84 68.7093 45.2 66.96C44.56 65.2107 43.9413 63.6107 43.344 62.16C42.7893 60.7093 42.2987 59.4293 41.872 58.32C41.4453 57.2107 41.104 56.336 40.848 55.696C40.6347 56.336 40.3147 57.2107 39.888 58.32C39.504 59.4293 39.0133 60.7093 38.416 62.16C37.8613 63.6107 37.2427 65.2107 36.56 66.96C35.92 68.7093 35.2587 70.544 34.576 72.464ZM64.405 102.58V55.456C65.629 55.0933 67.057 54.7533 68.689 54.436C70.3663 54.1187 72.089 53.8693 73.857 53.688C75.6703 53.5067 77.393 53.416 79.025 53.416C82.969 53.416 86.3237 54.1867 89.089 55.728C91.8543 57.224 93.9623 59.3773 95.413 62.188C96.909 64.9987 97.657 68.308 97.657 72.116C97.657 75.788 97.045 79.0293 95.821 81.84C94.6423 84.6053 92.897 86.7813 90.585 88.368C88.273 89.9093 85.417 90.68 82.017 90.68C80.6117 90.68 79.297 90.544 78.073 90.272C76.849 90 75.6703 89.6147 74.537 89.116V102.58H64.405ZM80.113 82.112C81.337 82.112 82.3797 81.908 83.241 81.5C84.1477 81.092 84.8957 80.48 85.485 79.664C86.1197 78.848 86.573 77.8507 86.845 76.672C87.1623 75.448 87.321 74.02 87.321 72.388C87.321 70.3027 87.0037 68.4893 86.369 66.948C85.7343 65.4067 84.805 64.2053 83.581 63.344C82.357 62.4827 80.8157 62.052 78.957 62.052C78.0503 62.052 77.2117 62.0973 76.441 62.188C75.6703 62.2333 75.0357 62.3013 74.537 62.392V80.684C75.1717 81.092 75.9877 81.432 76.985 81.704C78.0277 81.976 79.0703 82.112 80.113 82.112ZM100.964 103.32V53.424C102.26 53.04 103.772 52.68 105.5 52.344C107.276 52.008 109.1 51.744 110.972 51.552C112.892 51.36 114.716 51.264 116.444 51.264C120.62 51.264 124.172 52.08 127.1 53.712C130.028 55.296 132.26 57.576 133.796 60.552C135.38 63.528 136.172 67.032 136.172 71.064C136.172 74.952 135.524 78.384 134.228 81.36C132.98 84.288 131.132 86.592 128.684 88.272C126.236 89.904 123.212 90.72 119.612 90.72C118.124 90.72 116.732 90.576 115.436 90.288C114.14 90 112.892 89.592 111.692 89.064V103.32H100.964ZM117.596 81.648C118.892 81.648 119.996 81.432 120.908 81C121.868 80.568 122.66 79.92 123.284 79.056C123.956 78.192 124.436 77.136 124.724 75.888C125.06 74.592 125.228 73.08 125.228 71.352C125.228 69.144 124.892 67.224 124.22 65.592C123.548 63.96 122.564 62.688 121.268 61.776C119.972 60.864 118.34 60.408 116.372 60.408C115.412 60.408 114.524 60.456 113.708 60.552C112.892 60.6 112.22 60.672 111.692 60.768V80.136C112.364 80.568 113.228 80.928 114.284 81.216C115.388 81.504 116.492 81.648 117.596 81.648ZM138.897 90C139.1 85.8453 139.328 81.4373 139.581 76.776C139.885 72.064 140.215 67.352 140.569 62.64C140.924 57.8773 141.304 53.3427 141.709 49.036C142.115 44.6787 142.571 40.7773 143.077 37.332H154.401C155.313 39.004 156.352 41.0813 157.517 43.564C158.683 45.996 159.899 48.656 161.165 51.544C162.483 54.432 163.775 57.3707 165.041 60.36C166.359 63.2987 167.575 66.0853 168.689 68.72C169.804 66.0853 170.995 63.2987 172.261 60.36C173.579 57.3707 174.871 54.432 176.137 51.544C177.455 48.656 178.696 45.996 179.861 43.564C181.027 41.0813 182.065 39.004 182.977 37.332H193.769C194.276 40.7773 194.732 44.6787 195.137 49.036C195.543 53.3427 195.923 57.8773 196.277 62.64C196.632 67.352 196.936 72.064 197.189 76.776C197.493 81.4373 197.747 85.8453 197.949 90H186.397C186.296 86.5547 186.169 82.932 186.017 79.132C185.865 75.2813 185.688 71.3293 185.485 67.276C185.283 63.172 185.004 59.0933 184.649 55.04C183.94 56.7627 183.155 58.612 182.293 60.588C181.432 62.564 180.545 64.616 179.633 66.744C178.721 68.8213 177.835 70.8733 176.973 72.9C176.112 74.9267 175.301 76.852 174.541 78.676C173.781 80.4493 173.123 81.9947 172.565 83.312H164.281C163.724 81.9947 163.065 80.4493 162.305 78.676C161.545 76.852 160.735 74.9267 159.873 72.9C159.012 70.8733 158.125 68.8213 157.213 66.744C156.301 64.616 155.415 62.564 154.553 60.588C153.692 58.612 152.907 56.7627 152.197 55.04C151.893 59.0933 151.615 63.172 151.361 67.276C151.159 71.3293 150.981 75.2813 150.829 79.132C150.677 82.932 150.551 86.5547 150.449 90H138.897ZM221.544 91.12C217.438 91.12 213.811 90.1867 210.664 88.32C207.571 86.4533 205.144 83.8667 203.384 80.56C201.678 77.2 200.824 73.3067 200.824 68.88C200.824 64.4533 201.704 60.5867 203.464 57.28C205.278 53.9733 207.758 51.4133 210.904 49.6C214.051 47.7333 217.598 46.8 221.544 46.8C225.598 46.8 229.171 47.7333 232.264 49.6C235.358 51.4133 237.784 53.9733 239.544 57.28C241.304 60.5867 242.184 64.4533 242.184 68.88C242.184 73.3067 241.331 77.2 239.624 80.56C237.918 83.8667 235.518 86.4533 232.424 88.32C229.384 90.1867 225.758 91.12 221.544 91.12ZM221.544 80.88C223.358 80.88 224.878 80.4 226.104 79.44C227.384 78.4267 228.344 77.04 228.984 75.28C229.678 73.4667 230.024 71.3333 230.024 68.88C230.024 66.4267 229.678 64.32 228.984 62.56C228.344 60.8 227.384 59.44 226.104 58.48C224.878 57.52 223.358 57.04 221.544 57.04C219.731 57.04 218.184 57.52 216.904 58.48C215.624 59.44 214.638 60.8 213.944 62.56C213.304 64.32 212.984 66.4267 212.984 68.88C212.984 71.3333 213.304 73.4667 213.944 75.28C214.638 77.04 215.624 78.4267 216.904 79.44C218.184 80.4 219.731 80.88 221.544 80.88ZM259.674 104.288C257.242 104.288 254.81 104.06 252.378 103.604C249.946 103.199 247.691 102.641 245.614 101.932L247.59 92.432C249.363 93.1413 251.213 93.6987 253.138 94.104C255.114 94.5093 257.343 94.712 259.826 94.712C262.005 94.712 263.727 94.3827 264.994 93.724C266.311 93.116 267.249 92.2293 267.806 91.064C268.414 89.8987 268.718 88.5813 268.718 87.112V85.668C267.502 86.2253 266.235 86.656 264.918 86.96C263.651 87.2133 262.258 87.34 260.738 87.34C257.09 87.34 253.974 86.6053 251.39 85.136C248.857 83.6667 246.931 81.5387 245.614 78.752C244.297 75.9653 243.638 72.6213 243.638 68.72C243.638 64.768 244.449 61.3227 246.07 58.384C247.691 55.4453 250.022 53.1653 253.062 51.544C256.102 49.9227 259.75 49.112 264.006 49.112C266.691 49.112 269.529 49.34 272.518 49.796C275.507 50.252 278.015 50.784 280.042 51.392V84.984C280.042 91.52 278.37 96.3587 275.026 99.5C271.733 102.692 266.615 104.288 259.674 104.288ZM262.866 78.22C264.031 78.22 265.121 78.068 266.134 77.764C267.147 77.46 268.009 77.1053 268.718 76.7V58.612C268.161 58.5107 267.502 58.4347 266.742 58.384C265.982 58.2827 265.095 58.232 264.082 58.232C262.106 58.232 260.459 58.688 259.142 59.6C257.825 60.512 256.837 61.7533 256.178 63.324C255.519 64.8947 255.19 66.6933 255.19 68.72C255.19 70.2907 255.342 71.684 255.646 72.9C256.001 74.0653 256.482 75.0533 257.09 75.864C257.749 76.624 258.559 77.2067 259.522 77.612C260.485 78.0173 261.599 78.22 262.866 78.22ZM298.455 103.536C296.151 103.536 293.847 103.32 291.543 102.888C289.239 102.504 287.103 101.976 285.135 101.304L287.007 92.304C288.687 92.976 290.439 93.504 292.263 93.888C294.135 94.272 296.247 94.464 298.599 94.464C300.663 94.464 302.295 94.152 303.495 93.528C304.743 92.952 305.631 92.112 306.159 91.008C306.735 89.904 307.023 88.656 307.023 87.264V85.896C305.871 86.424 304.671 86.832 303.423 87.12C302.223 87.36 300.903 87.48 299.463 87.48C296.007 87.48 293.055 86.784 290.607 85.392C288.207 84 286.383 81.984 285.135 79.344C283.887 76.704 283.263 73.536 283.263 69.84C283.263 66.096 284.031 62.832 285.567 60.048C287.103 57.264 289.311 55.104 292.191 53.568C295.071 52.032 298.527 51.264 302.559 51.264C305.103 51.264 307.791 51.48 310.623 51.912C313.455 52.344 315.831 52.848 317.751 53.424V85.248C317.751 91.44 316.167 96.024 312.999 99C309.879 102.024 305.031 103.536 298.455 103.536ZM301.479 78.84C302.583 78.84 303.615 78.696 304.575 78.408C305.535 78.12 306.351 77.784 307.023 77.4V60.264C306.495 60.168 305.871 60.096 305.151 60.048C304.431 59.952 303.591 59.904 302.631 59.904C300.759 59.904 299.199 60.336 297.951 61.2C296.703 62.064 295.767 63.24 295.143 64.728C294.519 66.216 294.207 67.92 294.207 69.84C294.207 71.328 294.351 72.648 294.639 73.8C294.975 74.904 295.431 75.84 296.007 76.608C296.631 77.328 297.399 77.88 298.311 78.264C299.223 78.648 300.279 78.84 301.479 78.84ZM339.697 90.952C335.39 90.952 331.832 90.136 329.021 88.504C326.256 86.872 324.193 84.6507 322.833 81.84C321.473 79.0293 320.793 75.8787 320.793 72.388C320.793 68.172 321.609 64.6587 323.241 61.848C324.918 58.992 327.049 56.8613 329.633 55.456C332.262 54.0053 335.028 53.28 337.929 53.28C341.329 53.28 344.253 53.9827 346.701 55.388C349.149 56.748 351.03 58.788 352.345 61.508C353.705 64.228 354.385 67.6053 354.385 71.64C354.385 72.2293 354.362 72.8867 354.317 73.612C354.272 74.292 354.226 74.904 354.181 75.448H331.197C331.424 77.5333 332.398 79.188 334.121 80.412C335.844 81.636 338.156 82.248 341.057 82.248C342.916 82.248 344.729 82.0893 346.497 81.772C348.31 81.4093 349.784 80.9787 350.917 80.48L352.277 88.708C351.189 89.252 349.444 89.7507 347.041 90.204C344.684 90.7027 342.236 90.952 339.697 90.952ZM331.197 68.512H344.593C344.548 67.3787 344.298 66.2907 343.845 65.248C343.392 64.2053 342.689 63.344 341.737 62.664C340.83 61.984 339.606 61.644 338.065 61.644C336.524 61.644 335.277 61.984 334.325 62.664C333.418 63.2987 332.716 64.1373 332.217 65.18C331.718 66.2227 331.378 67.3333 331.197 68.512ZM373.1 90.832C369.388 90.832 366.231 90.128 363.628 88.72C361.025 87.312 359.02 85.3067 357.612 82.704C356.247 80.0587 355.564 76.944 355.564 73.36C355.564 69.6907 356.161 66.5333 357.356 63.888C358.551 61.2427 360.257 59.216 362.476 57.808C364.737 56.3573 367.447 55.632 370.604 55.632C371.927 55.632 373.1 55.76 374.124 56.016C375.191 56.272 376.257 56.6347 377.324 57.104V41.872L386.86 40.336V88.912C385.751 89.2533 384.407 89.5733 382.828 89.872C381.249 90.1707 379.607 90.4053 377.9 90.576C376.236 90.7467 374.636 90.832 373.1 90.832ZM373.164 82.704C374.017 82.704 374.807 82.6827 375.532 82.64C376.257 82.5547 376.855 82.4693 377.324 82.384V65.04C376.727 64.656 375.937 64.336 374.956 64.08C374.017 63.824 373.057 63.696 372.076 63.696C370.924 63.696 369.921 63.888 369.068 64.272C368.257 64.656 367.553 65.232 366.956 66C366.401 66.768 365.975 67.728 365.676 68.88C365.42 70.032 365.292 71.376 365.292 72.912C365.292 74.8747 365.591 76.6027 366.188 78.096C366.785 79.5467 367.66 80.6773 368.812 81.488C370.007 82.2987 371.457 82.704 373.164 82.704Z" fill="url(#paint1_linear_293_20)"/>
<path d="M129 108.008C128.477 108.008 127.981 107.965 127.512 107.88C127.043 107.795 126.632 107.688 126.28 107.56L126.568 106.2C126.877 106.317 127.245 106.419 127.672 106.504C128.099 106.6 128.552 106.648 129.032 106.648C129.608 106.648 130.072 106.573 130.424 106.424C130.787 106.275 131.048 106.04 131.208 105.72C131.379 105.4 131.464 104.995 131.464 104.504V104.056C131.283 104.163 131.021 104.28 130.68 104.408C130.349 104.525 129.944 104.584 129.464 104.584C128.771 104.584 128.147 104.445 127.592 104.168C127.037 103.88 126.6 103.443 126.28 102.856C125.971 102.269 125.816 101.523 125.816 100.616C125.816 99.816 125.976 99.1067 126.296 98.488C126.627 97.8693 127.096 97.384 127.704 97.032C128.312 96.68 129.037 96.504 129.88 96.504C130.563 96.504 131.171 96.552 131.704 96.648C132.237 96.744 132.68 96.8453 133.032 96.952V104.328C133.032 105.619 132.696 106.552 132.024 107.128C131.363 107.715 130.355 108.008 129 108.008ZM129.64 103.256C130.013 103.256 130.36 103.203 130.68 103.096C131.011 102.989 131.267 102.861 131.448 102.712V98.008C131.299 97.9653 131.101 97.928 130.856 97.896C130.621 97.8533 130.301 97.832 129.896 97.832C129.373 97.832 128.931 97.9493 128.568 98.184C128.205 98.4187 127.928 98.7493 127.736 99.176C127.544 99.592 127.448 100.077 127.448 100.632C127.448 101.091 127.507 101.485 127.624 101.816C127.741 102.147 127.901 102.419 128.104 102.632C128.307 102.845 128.536 103.005 128.792 103.112C129.059 103.208 129.341 103.256 129.64 103.256ZM141.577 105.192C140.596 105.192 139.79 105.005 139.161 104.632C138.542 104.248 138.084 103.731 137.785 103.08C137.497 102.429 137.353 101.688 137.353 100.856C137.353 99.8747 137.534 99.064 137.897 98.424C138.26 97.7733 138.729 97.288 139.305 96.968C139.892 96.6373 140.505 96.472 141.145 96.472C141.87 96.472 142.494 96.6267 143.017 96.936C143.55 97.2347 143.961 97.6933 144.249 98.312C144.537 98.92 144.681 99.6933 144.681 100.632C144.681 100.728 144.676 100.835 144.665 100.952C144.665 101.069 144.66 101.181 144.649 101.288H138.985C139.038 102.077 139.284 102.696 139.721 103.144C140.169 103.581 140.836 103.8 141.721 103.8C142.233 103.8 142.67 103.752 143.033 103.656C143.406 103.56 143.689 103.469 143.881 103.384L144.121 104.696C143.94 104.792 143.609 104.899 143.129 105.016C142.66 105.133 142.142 105.192 141.577 105.192ZM139.017 100.088H143.113C143.102 99.64 143.022 99.2453 142.873 98.904C142.724 98.5627 142.505 98.296 142.217 98.104C141.94 97.912 141.588 97.816 141.161 97.816C140.724 97.816 140.35 97.9227 140.041 98.136C139.732 98.3493 139.492 98.632 139.321 98.984C139.15 99.3253 139.049 99.6933 139.017 100.088ZM151.921 105.176C151.164 105.176 150.567 105.048 150.129 104.792C149.703 104.525 149.399 104.136 149.217 103.624C149.047 103.112 148.961 102.493 148.961 101.768V94.376L150.545 94.104V96.664H153.665V97.992H150.545V101.816C150.545 102.317 150.604 102.717 150.721 103.016C150.839 103.304 151.009 103.507 151.233 103.624C151.468 103.741 151.756 103.8 152.097 103.8C152.46 103.8 152.775 103.763 153.041 103.688C153.319 103.603 153.548 103.523 153.729 103.448L154.001 104.712C153.799 104.808 153.516 104.909 153.153 105.016C152.791 105.123 152.38 105.176 151.921 105.176ZM163.802 105V96.952C164.165 96.856 164.623 96.76 165.178 96.664C165.733 96.5573 166.362 96.504 167.066 96.504C167.631 96.504 168.101 96.5787 168.474 96.728C168.858 96.8773 169.167 97.0853 169.402 97.352C169.541 97.256 169.738 97.1387 169.994 97C170.25 96.8613 170.549 96.744 170.89 96.648C171.242 96.552 171.621 96.504 172.026 96.504C172.89 96.504 173.546 96.6693 173.994 97C174.453 97.32 174.762 97.768 174.922 98.344C175.082 98.9093 175.162 99.5707 175.162 100.328V105H173.578V100.648C173.578 100.008 173.53 99.4853 173.434 99.08C173.338 98.664 173.167 98.36 172.922 98.168C172.677 97.976 172.319 97.88 171.85 97.88C171.551 97.88 171.279 97.9173 171.034 97.992C170.799 98.056 170.597 98.136 170.426 98.232C170.255 98.328 170.122 98.408 170.026 98.472C170.111 98.728 170.175 99.016 170.218 99.336C170.261 99.656 170.282 99.992 170.282 100.344V105H168.698V100.648C168.698 100.008 168.65 99.4853 168.554 99.08C168.458 98.664 168.282 98.36 168.026 98.168C167.781 97.976 167.413 97.88 166.922 97.88C166.687 97.88 166.469 97.8907 166.266 97.912C166.063 97.9227 165.887 97.944 165.738 97.976C165.589 97.9973 165.477 98.0187 165.402 98.04V105H163.802ZM183.327 105.208C182.559 105.208 181.876 105.027 181.279 104.664C180.692 104.301 180.233 103.795 179.903 103.144C179.572 102.483 179.407 101.709 179.407 100.824C179.407 99.9493 179.572 99.1867 179.903 98.536C180.244 97.8853 180.708 97.3787 181.295 97.016C181.892 96.6533 182.569 96.472 183.327 96.472C184.095 96.472 184.772 96.6533 185.359 97.016C185.945 97.3787 186.404 97.8853 186.735 98.536C187.076 99.1867 187.247 99.9493 187.247 100.824C187.247 101.709 187.081 102.483 186.751 103.144C186.42 103.795 185.961 104.301 185.375 104.664C184.799 105.027 184.116 105.208 183.327 105.208ZM183.327 103.816C183.807 103.816 184.212 103.693 184.543 103.448C184.884 103.203 185.145 102.856 185.327 102.408C185.519 101.96 185.615 101.432 185.615 100.824C185.615 100.227 185.519 99.704 185.327 99.256C185.145 98.808 184.884 98.4667 184.543 98.232C184.212 97.9867 183.807 97.864 183.327 97.864C182.857 97.864 182.452 97.9867 182.111 98.232C181.769 98.4667 181.503 98.808 181.311 99.256C181.129 99.704 181.039 100.227 181.039 100.824C181.039 101.432 181.129 101.96 181.311 102.408C181.503 102.856 181.769 103.203 182.111 103.448C182.452 103.693 182.857 103.816 183.327 103.816ZM194.299 108.008C193.777 108.008 193.281 107.965 192.811 107.88C192.342 107.795 191.931 107.688 191.579 107.56L191.867 106.2C192.177 106.317 192.545 106.419 192.971 106.504C193.398 106.6 193.851 106.648 194.331 106.648C194.907 106.648 195.371 106.573 195.723 106.424C196.086 106.275 196.347 106.04 196.507 105.72C196.678 105.4 196.763 104.995 196.763 104.504V104.056C196.582 104.163 196.321 104.28 195.979 104.408C195.649 104.525 195.243 104.584 194.763 104.584C194.07 104.584 193.446 104.445 192.891 104.168C192.337 103.88 191.899 103.443 191.579 102.856C191.27 102.269 191.115 101.523 191.115 100.616C191.115 99.816 191.275 99.1067 191.595 98.488C191.926 97.8693 192.395 97.384 193.003 97.032C193.611 96.68 194.337 96.504 195.179 96.504C195.862 96.504 196.47 96.552 197.003 96.648C197.537 96.744 197.979 96.8453 198.331 96.952V104.328C198.331 105.619 197.995 106.552 197.323 107.128C196.662 107.715 195.654 108.008 194.299 108.008ZM194.939 103.256C195.313 103.256 195.659 103.203 195.979 103.096C196.31 102.989 196.566 102.861 196.747 102.712V98.008C196.598 97.9653 196.401 97.928 196.155 97.896C195.921 97.8533 195.601 97.832 195.195 97.832C194.673 97.832 194.23 97.9493 193.867 98.184C193.505 98.4187 193.227 98.7493 193.035 99.176C192.843 99.592 192.747 100.077 192.747 100.632C192.747 101.091 192.806 101.485 192.923 101.816C193.041 102.147 193.201 102.419 193.403 102.632C193.606 102.845 193.835 103.005 194.091 103.112C194.358 103.208 194.641 103.256 194.939 103.256ZM205.836 108.008C205.314 108.008 204.818 107.965 204.348 107.88C203.879 107.795 203.468 107.688 203.116 107.56L203.404 106.2C203.714 106.317 204.082 106.419 204.508 106.504C204.935 106.6 205.388 106.648 205.868 106.648C206.444 106.648 206.908 106.573 207.26 106.424C207.623 106.275 207.884 106.04 208.044 105.72C208.215 105.4 208.3 104.995 208.3 104.504V104.056C208.119 104.163 207.858 104.28 207.516 104.408C207.186 104.525 206.78 104.584 206.3 104.584C205.607 104.584 204.983 104.445 204.428 104.168C203.874 103.88 203.436 103.443 203.116 102.856C202.807 102.269 202.652 101.523 202.652 100.616C202.652 99.816 202.812 99.1067 203.132 98.488C203.463 97.8693 203.932 97.384 204.54 97.032C205.148 96.68 205.874 96.504 206.716 96.504C207.399 96.504 208.007 96.552 208.54 96.648C209.074 96.744 209.516 96.8453 209.868 96.952V104.328C209.868 105.619 209.532 106.552 208.86 107.128C208.199 107.715 207.191 108.008 205.836 108.008ZM206.476 103.256C206.85 103.256 207.196 103.203 207.516 103.096C207.847 102.989 208.103 102.861 208.284 102.712V98.008C208.135 97.9653 207.938 97.928 207.692 97.896C207.458 97.8533 207.138 97.832 206.732 97.832C206.21 97.832 205.767 97.9493 205.404 98.184C205.042 98.4187 204.764 98.7493 204.572 99.176C204.38 99.592 204.284 100.077 204.284 100.632C204.284 101.091 204.343 101.485 204.46 101.816C204.578 102.147 204.738 102.419 204.94 102.632C205.143 102.845 205.372 103.005 205.628 103.112C205.895 103.208 206.178 103.256 206.476 103.256ZM218.413 105.192C217.432 105.192 216.626 105.005 215.997 104.632C215.378 104.248 214.92 103.731 214.621 103.08C214.333 102.429 214.189 101.688 214.189 100.856C214.189 99.8747 214.37 99.064 214.733 98.424C215.096 97.7733 215.565 97.288 216.141 96.968C216.728 96.6373 217.341 96.472 217.981 96.472C218.706 96.472 219.33 96.6267 219.853 96.936C220.386 97.2347 220.797 97.6933 221.085 98.312C221.373 98.92 221.517 99.6933 221.517 100.632C221.517 100.728 221.512 100.835 221.501 100.952C221.501 101.069 221.496 101.181 221.485 101.288H215.821C215.874 102.077 216.12 102.696 216.557 103.144C217.005 103.581 217.672 103.8 218.557 103.8C219.069 103.8 219.506 103.752 219.869 103.656C220.242 103.56 220.525 103.469 220.717 103.384L220.957 104.696C220.776 104.792 220.445 104.899 219.965 105.016C219.496 105.133 218.978 105.192 218.413 105.192ZM215.853 100.088H219.949C219.938 99.64 219.858 99.2453 219.709 98.904C219.56 98.5627 219.341 98.296 219.053 98.104C218.776 97.912 218.424 97.816 217.997 97.816C217.56 97.816 217.186 97.9227 216.877 98.136C216.568 98.3493 216.328 98.632 216.157 98.984C215.986 99.3253 215.885 99.6933 215.853 100.088ZM229.606 105.192C228.752 105.192 228.011 105.021 227.382 104.68C226.752 104.328 226.267 103.827 225.926 103.176C225.584 102.525 225.414 101.752 225.414 100.856C225.414 99.9813 225.558 99.2187 225.846 98.568C226.144 97.9173 226.571 97.4107 227.126 97.048C227.691 96.6747 228.368 96.488 229.158 96.488C229.616 96.488 230.016 96.552 230.358 96.68C230.71 96.7973 230.992 96.92 231.206 97.048V92.856L232.79 92.584V104.744C232.555 104.808 232.272 104.877 231.942 104.952C231.622 105.027 231.264 105.085 230.87 105.128C230.475 105.171 230.054 105.192 229.606 105.192ZM229.622 103.816C230.006 103.816 230.331 103.8 230.598 103.768C230.864 103.725 231.067 103.683 231.206 103.64V98.44C231.035 98.312 230.784 98.1893 230.454 98.072C230.123 97.944 229.76 97.88 229.366 97.88C228.95 97.88 228.592 97.9493 228.294 98.088C228.006 98.2267 227.766 98.4293 227.574 98.696C227.392 98.9627 227.259 99.2773 227.174 99.64C227.088 99.992 227.046 100.381 227.046 100.808C227.046 101.437 227.152 101.976 227.366 102.424C227.579 102.872 227.878 103.219 228.262 103.464C228.646 103.699 229.099 103.816 229.622 103.816Z" fill="url(#paint2_linear_293_20)"/>
<defs>
<linearGradient id="paint0_linear_293_20" x1="405" y1="136" x2="4.99998" y2="5" gradientUnits="userSpaceOnUse">
<stop stop-color="#EC407A"/>
<stop offset="1" stop-color="#AB47BC"/>
</linearGradient>
<linearGradient id="paint1_linear_293_20" x1="18" y1="15" x2="395.462" y2="94.5791" gradientUnits="userSpaceOnUse">
<stop stop-color="#AB47BC"/>
<stop offset="1" stop-color="#EC407A"/>
</linearGradient>
<linearGradient id="paint2_linear_293_20" x1="125" y1="90" x2="230.588" y2="123.081" gradientUnits="userSpaceOnUse">
<stop stop-color="#AB47BC"/>
<stop offset="1" stop-color="#EC407A"/>
</linearGradient>
</defs>
</svg>
